#tb 0: 1/96000
#media_type 0: audio
#codec_id 0: pcm_s24le
#sample_rate 0: 96000
#channel_layout_name 0: 7.1
0,          0,          0,     1024,    24576, 0xbdfff0e4
0,       1024,       1024,     1024,    24576, 0x00000000
0,       2048,       2048,     1024,    24576, 0x47d8aee7
0,       3072,       3072,     1024,    24576, 0x2018104b
0,       4096,       4096,     1024,    24576, 0x850b8f49
0,       5120,       5120,     1024,    24576, 0x17f7ca6f
